<svg width="310" height="101" viewBox="0 0 310 101" fill="none" xmlns="http://www.w3.org/2000/svg">
<path d="M7.24 17.86C6.76 17.96 6.3 18.04 5.84 18.12V16.14H7.3V14.38H5.84V11.86L4.3 11.78V14.38H3.16C3.56 13.26 4.02 11.7 4.44 10.02H7.72V8.26H4.88C5.06 7.48 5.22 6.78 5.36 6.08L3.72 5.72C3.58 6.44 3.4 7.32 3.18 8.26H1.34V10.02H2.76C2.34 11.7 1.88 13.32 1.5 14.28V16.14H4.3V18.4C3.18 18.62 2.08 18.78 0.94 18.94L1.12 20.86C2.22 20.7 3.24 20.54 4.3 20.32V24H5.84V20.02L7.36 19.72L7.24 17.86ZM11.8 5.8C10.6 7.88 8.94 9.46 6.6 10.9L7.58 12.62C8.36 12.12 9.06 11.6 9.72 11.02V11.94H15.38V10.66C16.2 11.36 17.08 12 18.02 12.54L18.86 10.74C16.68 9.52 14.66 7.8 13.46 5.8H11.8ZM10.4 10.4C11.3 9.52 12.08 8.54 12.7 7.48C13.24 8.5 14.06 9.5 15.08 10.4H10.4ZM15.92 21.32C15.92 21.9 15.78 22.12 14.84 22.18L14.02 22.22L14.58 23.9L15.34 23.86C17.02 23.78 17.52 23.26 17.52 21.84V12.74L15.92 12.66V21.32ZM7.64 23.82H9.12V20.26H11.1V21.66C11.1 22.12 11 22.2 10.42 22.26L9.84 22.3L10.36 23.94L10.98 23.88C12.24 23.78 12.66 23.48 12.66 22.14V12.96H7.64V23.82ZM15.08 13.42L13.56 13.34V20.54H15.08V13.42ZM11.1 14.42V15.82H9.12V14.42H11.1ZM9.12 18.7V17.32H11.1V18.7H9.12ZM30.8275 10.2C30.5275 8.84 29.5675 7.72 28.3075 6.94L26.9875 6.12L25.9475 7.72L27.2675 8.6C27.7275 8.9 28.1875 9.38 28.5675 10C27.9875 14.08 25.7675 18.22 20.3275 22.16L21.8875 23.96C26.4075 20.36 28.6075 16.88 29.6875 13.5C31.0675 18.2 33.0075 20.44 37.0075 23.96L38.5675 22.1C33.9475 18.32 32.0475 15.8 30.8275 10.2Z" fill="#52525B"/>
<path d="M126.3 7.36H120.96C121.18 6.94 121.34 6.5 121.52 6.04L119.58 5.74C119.18 6.86 118.76 7.72 118.12 8.68V7.36H113.54C113.76 6.94 113.98 6.5 114.16 6.08L112.24 5.7C111.54 7.24 110.44 8.9 109.14 10.26L110.56 11.28H109.84V14.34H111.5V24.14H113.48V23.4H122.36V24.06H124.36V19.14H113.48V18.02H123.92V14.34H125.84V11.28H119C118.86 10.86 118.74 10.44 118.6 10.06L119.3 10.4C119.6 9.94 119.86 9.52 120.1 9.06H120.94C121.34 9.56 122.1 10.66 122.48 11.24L123.92 10.16C123.7 9.86 123.42 9.48 123.08 9.06H126.3V7.36ZM110.8 11.28C111.4 10.6 111.96 9.86 112.5 9.06H112.9C113.26 9.58 114.1 10.6 114.42 11.2L115.86 10.12C115.64 9.86 115.36 9.44 115.04 9.06H117.86C117.76 9.22 117.66 9.38 117.52 9.54L118.4 9.96L116.7 10.24C116.84 10.62 116.92 10.94 117.02 11.28H110.8ZM123.82 13.96H111.86V12.84H123.82V13.96ZM121.96 16.54H113.48V15.44H121.96V16.54ZM122.36 20.66V21.9H113.48V20.66H122.36ZM141.308 21.56V19.84H145.488V18H141.308V16.28H145.248V6.84H135.528V16.28H139.468V18H135.368V19.84H139.468V21.56H134.228V23.38H146.428V21.56H141.308ZM135.028 19.34L133.008 19.84V15.28H134.928V13.44H133.008V9.28H135.068V7.46H129.007V9.28H131.168V13.44H129.168V15.28H131.168V20.26C130.048 20.5 129.028 20.72 128.568 20.8L128.828 22.68C129.808 22.44 134.028 21.4 135.208 21.24L135.028 19.34ZM139.468 8.64V10.7H137.388V8.64H139.468ZM143.408 10.7H141.308V8.64H143.408V10.7ZM137.388 14.48V12.46H139.468V14.48H137.388ZM141.308 14.48V12.46H143.408V14.48H141.308ZM148.715 22.6H150.635L156.035 7.52H154.115L148.715 22.6ZM163.395 8.78V12.28H165.395V9H173.155V12.28H175.175V7.16H163.395V8.68C162.575 7.98 160.895 6.72 160.075 6.18L158.935 7.82C159.895 8.4 161.535 9.74 162.315 10.52L163.395 8.78ZM162.755 13.26C162.015 12.58 160.255 11.24 159.215 10.58L158.175 12.24C159.035 12.82 160.835 14.32 161.695 15.12L162.755 13.26ZM174.475 18.48C174.455 19.22 174.415 19.94 174.315 20.84C174.235 21.58 174.115 21.78 173.495 21.78H173.115C172.535 21.78 172.415 21.68 172.415 20.98V12.22H165.515V15.74C165.515 19.18 164.935 20.38 162.175 22.84L163.675 24.26C166.575 21.64 167.395 19.86 167.395 16.08V14.1H170.515V21.44C170.515 23.1 171.175 23.66 172.615 23.66H173.475C175.075 23.66 175.875 23.26 176.035 21.34C176.135 20.32 176.175 19.76 176.175 19.06L174.475 18.48ZM161.075 16.22C160.595 17.76 159.155 21.46 158.455 22.9L160.395 23.7C161.135 22.1 162.355 18.86 162.935 16.94L161.075 16.22ZM185.463 9.78H193.083V11.38H195.083V7.9H190.383C190.163 7.12 189.903 6.3 189.763 5.84L187.683 6.08C187.823 6.5 188.023 7.2 188.203 7.9H183.463V11.38H185.463V9.78ZM183.383 8.8C182.523 8.1 180.703 6.8 179.903 6.26L178.823 7.8C179.683 8.4 181.503 9.76 182.323 10.58L183.383 8.8ZM182.663 13.52C181.623 12.66 179.943 11.46 179.043 10.88L177.943 12.44C178.803 13.02 180.643 14.36 181.603 15.32L182.663 13.52ZM190.743 21.46V18.48H194.403V16.58H190.743V13.92H194.863V12.08H183.703V13.92H188.763V21.12C187.622 20.7 186.743 19.82 186.183 18.12C186.343 17.26 186.443 16.38 186.503 15.42L184.603 15.3C184.443 18.56 183.803 20.22 181.523 22.72L182.923 24.3C184.143 23.02 184.943 21.82 185.483 20.54C186.643 22.76 188.443 23.36 190.823 23.42C192.343 23.48 193.883 23.42 195.423 23.34L195.863 21.38C194.163 21.46 192.463 21.52 190.783 21.46H190.743ZM180.483 16.3C180.103 17.68 178.923 21.82 178.363 23.16L180.283 23.78C180.763 22.5 182.023 18.06 182.342 16.82L180.483 16.3Z" fill="#52525B"/>
<path d="M131.1 79.28H124.18C123.92 78.4 123.64 77.44 123.46 76.94L121.42 77.24C121.58 77.7 121.8 78.5 122.02 79.28H114.58V81.26H131.1V79.28ZM130.96 85.82C129.56 84.58 126.8 82.44 125.34 81.42L124.14 82.96C125.7 84.02 128.48 86.38 129.8 87.66L130.96 85.82ZM115.82 87.92C117.82 86.46 119.82 84.64 121.34 82.86L119.86 81.48C118.44 83.14 116.62 84.8 114.64 86.1L115.82 87.92ZM131.9 93.14C128.62 92.34 126.28 91.5 124.42 90.24C125.54 89.1 126.4 87.76 127.2 86.14L125.36 85.22C124.66 86.74 123.86 87.94 122.84 88.96C121.82 87.94 120.96 86.74 120.14 85.22L118.42 86.26C119.28 87.84 120.24 89.18 121.26 90.28C119.44 91.54 117.12 92.48 113.78 93.42L114.64 95.52C118.3 94.32 120.84 93.18 122.82 91.68C124.84 93.2 127.4 94.26 131.14 95.36L131.9 93.14ZM139.308 83.52C138.988 83.76 138.648 84.08 138.168 84.14L138.668 85.82C140.688 85.66 146.288 85.48 148.228 85.4L149.108 86.46L150.448 85.04C149.448 83.82 147.848 82.1 146.748 81.1L145.328 82.3C145.748 82.68 146.208 83.14 146.708 83.68L141.348 83.88C142.048 83.34 143.128 82.08 144.088 80.92H150.468V79.04H145.368C145.128 78.18 144.828 77.3 144.648 76.76L142.608 77.04C142.768 77.52 143.008 78.32 143.228 79.04H138.728V80.92H141.668C140.768 82.04 139.788 83.14 139.308 83.52ZM138.708 79.88C137.808 79.08 136.128 77.88 135.168 77.3L134.048 78.84C134.868 79.38 136.768 80.86 137.568 81.66L138.708 79.88ZM137.848 84.5C136.808 83.6 135.408 82.52 134.328 81.88L133.268 83.38C134.168 83.96 135.988 85.46 136.788 86.26L137.848 84.5ZM139.428 88.16C139.488 91.3 138.928 92.36 136.688 94.12L138.048 95.5C140.828 93.08 141.228 91.66 141.328 88.6C141.348 87.9 141.348 87.14 141.348 86.52L139.428 86.44V88.16ZM149.888 90.62C149.868 91.18 149.808 91.88 149.728 92.42C149.648 92.98 149.528 93.08 148.968 93.08H148.788C148.328 93.08 148.148 92.98 148.148 92.52V86.52L146.328 86.44V93.1C146.328 94.46 146.868 94.86 148.248 94.86H149.148C150.608 94.86 151.148 94.42 151.308 93.06C151.368 92.56 151.428 91.92 151.448 91.06L149.888 90.62ZM142.948 94.58H144.728V86.54L142.948 86.46V94.58ZM135.908 87.2C135.748 88 134.108 93.48 133.708 94.34L135.668 94.9C136.088 93.82 137.608 88.58 137.768 87.72L135.908 87.2ZM171.395 93.14C169.075 92.48 167.155 91.58 165.535 90.52C167.135 88.92 168.315 87 169.355 84.5V82.5H157.835V80.56C161.515 80.4 165.995 79.96 169.875 79.42L169.495 77.32C165.275 77.96 159.675 78.42 155.835 78.58V83.96C155.835 89.14 155.235 90.78 152.995 94.02L154.895 95.26C155.355 94.56 155.735 93.94 156.055 93.32L157.195 95.36C159.995 94.26 162.135 93.22 163.835 91.94C165.615 93.24 167.755 94.34 170.415 95.36L171.395 93.14ZM156.095 93.26C157.355 90.9 157.835 88.64 157.835 84.5H159.895L158.355 85.54C159.375 87.46 160.575 89.06 162.095 90.5C160.495 91.56 158.515 92.46 156.095 93.26ZM163.795 89.2C162.195 87.82 160.995 86.24 160.055 84.5H167.035C166.255 86.4 165.235 87.9 163.795 89.2ZM183.743 83.86H178.783V85.46H190.583V83.86H185.443V82.82H189.583V78.2H185.443V76.94L183.743 76.86V78.2H179.703V82.82H183.743V83.86ZM178.563 89.9C178.083 90.28 177.303 90.84 176.743 91.3V84.5L177.903 84.9L179.163 81.54V79.64H176.603C176.843 78.86 177.023 78.06 177.243 77.2L175.383 76.98C174.763 79.76 173.743 82.16 172.603 84.3L174.003 85.62C174.383 84.98 174.702 84.34 175.023 83.7V91.6C175.023 92.22 174.863 92.56 174.483 92.94L175.523 94.54C175.823 94.24 176.123 93.98 176.423 93.76C177.043 93.28 178.703 92.08 179.203 91.7L178.563 89.9ZM181.383 81.3V79.8H183.743V81.3H181.383ZM187.863 79.8V81.3H185.443V79.8H187.863ZM175.043 83.68C175.383 82.96 175.683 82.24 175.983 81.5H177.583L176.723 83.76L175.043 83.68ZM189.243 91.58V86.44H179.963V91.62H181.723V88.08H187.483V91.58H189.243ZM183.763 88.64C183.743 88.88 183.763 89.36 183.703 89.58C183.603 91.1 182.823 92.24 178.083 93.42L178.643 95.34C183.403 93.92 185.323 92.52 185.423 89.74C185.443 89.48 185.463 89.04 185.463 88.72L183.763 88.64ZM185.063 92.62C186.423 93.22 188.443 94.34 189.763 95.3L190.603 93.5C189.263 92.64 187.343 91.64 185.863 91.06L185.063 92.62Z" fill="#52525B"/>
<path d="M277.24 17.86C276.76 17.96 276.3 18.04 275.84 18.12V16.14H277.3V14.38H275.84V11.86L274.3 11.78V14.38H273.16C273.56 13.26 274.02 11.7 274.44 10.02H277.72V8.26H274.88C275.06 7.48 275.22 6.78 275.36 6.08L273.72 5.72C273.58 6.44 273.4 7.32 273.18 8.26H271.34V10.02H272.76C272.34 11.7 271.88 13.32 271.5 14.28V16.14H274.3V18.4C273.18 18.62 272.08 18.78 270.94 18.94L271.12 20.86C272.22 20.7 273.24 20.54 274.3 20.32V24H275.84V20.02L277.36 19.72L277.24 17.86ZM281.8 5.8C280.6 7.88 278.94 9.46 276.6 10.9L277.58 12.62C278.36 12.12 279.06 11.6 279.72 11.02V11.94H285.38V10.66C286.2 11.36 287.08 12 288.02 12.54L288.86 10.74C286.68 9.52 284.66 7.8 283.46 5.8H281.8ZM280.4 10.4C281.3 9.52 282.08 8.54 282.7 7.48C283.24 8.5 284.06 9.5 285.08 10.4H280.4ZM285.92 21.32C285.92 21.9 285.78 22.12 284.84 22.18L284.02 22.22L284.58 23.9L285.34 23.86C287.02 23.78 287.52 23.26 287.52 21.84V12.74L285.92 12.66V21.32ZM277.64 23.82H279.12V20.26H281.1V21.66C281.1 22.12 281 22.2 280.42 22.26L279.84 22.3L280.36 23.94L280.98 23.88C282.24 23.78 282.66 23.48 282.66 22.14V12.96H277.64V23.82ZM285.08 13.42L283.56 13.34V20.54H285.08V13.42ZM281.1 14.42V15.82H279.12V14.42H281.1ZM279.12 18.7V17.32H281.1V18.7H279.12ZM305.128 16.02V21.38H300.548V14.68H306.568V7.7L304.568 7.62V12.72H300.548V5.9L298.568 5.82V12.72H294.548V7.7L292.528 7.62V14.68H298.568V21.38H293.988V16.14L291.948 16.06V23.26H305.128V23.92H307.168V16.1L305.128 16.02Z" fill="#52525B"/>
<path d="M99 15L84 6.33975L84 23.6603L99 15ZM49 16.5L85.5 16.5L85.5 13.5L49 13.5L49 16.5Z" fill="#71717A"/>
<path d="M260 15L245 6.33975V23.6603L260 15ZM210 16.5H246.5V13.5H210V16.5Z" fill="#71717A"/>
<path d="M290 86V87.5C290.828 87.5 291.5 86.8284 291.5 86H290ZM201.5 86L216.5 94.6603V77.3397L201.5 86ZM288.5 39.5V86H291.5V39.5H288.5ZM290 84.5H215V87.5H290V84.5Z" fill="#71717A"/>
<path d="M14 85H12.5C12.5 85.8284 13.1716 86.5 14 86.5V85ZM14 39.5L5.33975 54.5H22.6603L14 39.5ZM106 83.5H14V86.5H106V83.5ZM15.5 85V53H12.5V85H15.5Z" fill="#71717A"/>
</svg>
